<?xml version="1.0" encoding="utf-8" standalone="no"?>
<!DOCTYPE svg PUBLIC "-//W3C//DTD SVG 1.1//EN" 
"http://www.w3.org/Graphics/SVG/1.1/DTD/svg11.dtd">
<svg width="516px" height="470px" viewBox="0 0 516 470"
xmlns="http://www.w3.org/2000/svg" version="1.1">
<rect x="0" y="0" width="516" height="470" fill="none" stroke="rgb(192,192,192)" stroke-width="1"/>
<text x="385" y="466" font-family="Times" font-size="12" xml:space="preserve"  fill="rgb(0,0,0)">A/1-912</text>
<text x="390" y="423" font-family="Times" font-size="12" xml:space="preserve"  fill="rgb(0,0,0)">B/1-912</text>
<text x="311" y="459" font-family="Times" font-size="12" xml:space="preserve"  fill="rgb(0,0,0)">0.013</text>
<text x="312" y="415" font-family="Times" font-size="12" xml:space="preserve"  fill="rgb(0,0,0)">0.013</text>
<text x="457" y="380" font-family="Times" font-size="12" xml:space="preserve"  fill="rgb(0,0,0)">C/1-880</text>
<text x="433" y="337" font-family="Times" font-size="12" xml:space="preserve"  fill="rgb(0,0,0)">D/1-884</text>
<text x="331" y="372" font-family="Times" font-size="12" xml:space="preserve"  fill="rgb(0,0,0)">0.022</text>
<text x="328" y="329" font-family="Times" font-size="12" xml:space="preserve"  fill="rgb(0,0,0)">0.018</text>
<text x="109" y="437" font-family="Times" font-size="12" xml:space="preserve"  fill="rgb(0,0,0)">0.034</text>
<text x="111" y="351" font-family="Times" font-size="12" xml:space="preserve"  fill="rgb(0,0,0)">0.036</text>
<text x="370" y="294" font-family="Times" font-size="12" xml:space="preserve"  fill="rgb(0,0,0)">E/1-906</text>
<text x="92" y="251" font-family="Times" font-size="12" xml:space="preserve"  fill="rgb(0,0,0)">R/1-900</text>
<text x="390" y="207" font-family="Times" font-size="12" xml:space="preserve"  fill="rgb(0,0,0)">J/1-942</text>
<text x="457" y="164" font-family="Times" font-size="12" xml:space="preserve"  fill="rgb(0,0,0)">H/1-898</text>
<text x="446" y="121" font-family="Times" font-size="12" xml:space="preserve"  fill="rgb(0,0,0)">I/1-882</text>
<text x="351" y="157" font-family="Times" font-size="12" xml:space="preserve"  fill="rgb(0,0,0)">0.018</text>
<text x="350" y="114" font-family="Times" font-size="12" xml:space="preserve"  fill="rgb(0,0,0)">0.016</text>
<text x="372" y="78" font-family="Times" font-size="12" xml:space="preserve"  fill="rgb(0,0,0)">F/1-923</text>
<text x="365" y="35" font-family="Times" font-size="12" xml:space="preserve"  fill="rgb(0,0,0)">G/1-912</text>
<text x="319" y="71" font-family="Times" font-size="12" xml:space="preserve"  fill="rgb(0,0,0)">0.009</text>
<text x="217" y="135" font-family="Times" font-size="12" xml:space="preserve"  fill="rgb(0,0,0)">0.022</text>
<text x="214" y="49" font-family="Times" font-size="12" xml:space="preserve"  fill="rgb(0,0,0)">0.017</text>
<text x="157" y="200" font-family="Times" font-size="12" xml:space="preserve"  fill="rgb(0,0,0)">0.040</text>
<text x="139" y="92" font-family="Times" font-size="12" xml:space="preserve"  fill="rgb(0,0,0)">0.011</text>
<text x="59" y="286" font-family="Times" font-size="12" xml:space="preserve"  fill="rgb(0,0,0)">0.054</text>
<text x="31" y="195" font-family="Times" font-size="12" xml:space="preserve"  fill="rgb(0,0,0)">0.010</text>
<text x="20" y="394" font-family="Times" font-size="12" xml:space="preserve"  fill="rgb(0,0,0)">0.012</text>
<line x1="304" y1="461" x2="383" y2="461" style="stroke:rgb(0,0,0);stroke-width:1;stroke-linecap:butt" />
<line x1="304" y1="418" x2="388" y2="418" style="stroke:rgb(0,0,0);stroke-width:1;stroke-linecap:butt" />
<line x1="304" y1="461" x2="304" y2="418" style="stroke:rgb(0,0,0);stroke-width:1;stroke-linecap:butt" />
<line x1="317" y1="375" x2="454" y2="375" style="stroke:rgb(0,0,0);stroke-width:1;stroke-linecap:butt" />
<line x1="317" y1="332" x2="430" y2="332" style="stroke:rgb(0,0,0);stroke-width:1;stroke-linecap:butt" />
<line x1="317" y1="375" x2="317" y2="332" style="stroke:rgb(0,0,0);stroke-width:1;stroke-linecap:butt" />
<line x1="88" y1="439" x2="304" y2="439" style="stroke:rgb(0,0,0);stroke-width:1;stroke-linecap:butt" />
<line x1="88" y1="353" x2="317" y2="353" style="stroke:rgb(0,0,0);stroke-width:1;stroke-linecap:butt" />
<line x1="88" y1="439" x2="88" y2="353" style="stroke:rgb(0,0,0);stroke-width:1;stroke-linecap:butt" />
<line x1="340" y1="159" x2="454" y2="159" style="stroke:rgb(0,0,0);stroke-width:1;stroke-linecap:butt" />
<line x1="340" y1="116" x2="444" y2="116" style="stroke:rgb(0,0,0);stroke-width:1;stroke-linecap:butt" />
<line x1="340" y1="159" x2="340" y2="116" style="stroke:rgb(0,0,0);stroke-width:1;stroke-linecap:butt" />
<line x1="313" y1="73" x2="370" y2="73" style="stroke:rgb(0,0,0);stroke-width:1;stroke-linecap:butt" />
<line x1="313" y1="30" x2="362" y2="30" style="stroke:rgb(0,0,0);stroke-width:1;stroke-linecap:butt" />
<line x1="313" y1="73" x2="313" y2="30" style="stroke:rgb(0,0,0);stroke-width:1;stroke-linecap:butt" />
<line x1="203" y1="138" x2="340" y2="138" style="stroke:rgb(0,0,0);stroke-width:1;stroke-linecap:butt" />
<line x1="203" y1="52" x2="313" y2="52" style="stroke:rgb(0,0,0);stroke-width:1;stroke-linecap:butt" />
<line x1="203" y1="138" x2="203" y2="52" style="stroke:rgb(0,0,0);stroke-width:1;stroke-linecap:butt" />
<line x1="131" y1="202" x2="387" y2="202" style="stroke:rgb(0,0,0);stroke-width:1;stroke-linecap:butt" />
<line x1="131" y1="95" x2="203" y2="95" style="stroke:rgb(0,0,0);stroke-width:1;stroke-linecap:butt" />
<line x1="131" y1="202" x2="131" y2="95" style="stroke:rgb(0,0,0);stroke-width:1;stroke-linecap:butt" />
<line x1="90" y1="246" x2="90" y2="246" style="stroke:rgb(0,0,0);stroke-width:1;stroke-linecap:butt" />
<line x1="90" y1="149" x2="131" y2="149" style="stroke:rgb(0,0,0);stroke-width:1;stroke-linecap:butt" />
<line x1="90" y1="246" x2="90" y2="149" style="stroke:rgb(0,0,0);stroke-width:1;stroke-linecap:butt" />
<line x1="25" y1="289" x2="367" y2="289" style="stroke:rgb(0,0,0);stroke-width:1;stroke-linecap:butt" />
<line x1="25" y1="197" x2="90" y2="197" style="stroke:rgb(0,0,0);stroke-width:1;stroke-linecap:butt" />
<line x1="25" y1="289" x2="25" y2="197" style="stroke:rgb(0,0,0);stroke-width:1;stroke-linecap:butt" />
<line x1="12" y1="396" x2="88" y2="396" style="stroke:rgb(0,0,0);stroke-width:1;stroke-linecap:butt" />
<line x1="12" y1="243" x2="25" y2="243" style="stroke:rgb(0,0,0);stroke-width:1;stroke-linecap:butt" />
<line x1="12" y1="396" x2="12" y2="243" style="stroke:rgb(0,0,0);stroke-width:1;stroke-linecap:butt" />
<text x="5" y="17" font-family="Times" font-size="12" xml:space="preserve"  fill="rgb(0,0,0)">PhyML ln(L)=-3233.4 1039 sites GTR 4 rate classes</text>
<line x1="427" y1="13" x2="490" y2="13" style="stroke:rgb(0,0,0);stroke-width:1;stroke-linecap:butt" />
<line x1="427" y1="17" x2="427" y2="9" style="stroke:rgb(0,0,0);stroke-width:1;stroke-linecap:butt" />
<line x1="490" y1="17" x2="490" y2="9" style="stroke:rgb(0,0,0);stroke-width:1;stroke-linecap:butt" />
<text x="445" y="11" font-family="Times" font-size="12" xml:space="preserve"  fill="rgb(0,0,0)">0.01</text>
</svg>
