<?xml version="1.0" encoding="utf-8" standalone="no"?>
<!DOCTYPE svg PUBLIC "-//W3C//DTD SVG 1.1//EN" 
"http://www.w3.org/Graphics/SVG/1.1/DTD/svg11.dtd">
<svg width="516px" height="470px" viewBox="0 0 516 470"
xmlns="http://www.w3.org/2000/svg" version="1.1">
<rect x="0" y="0" width="516" height="470" fill="none" stroke="rgb(192,192,192)" stroke-width="1"/>
<text x="346" y="466" font-family="Times" font-size="12" xml:space="preserve"  fill="rgb(0,0,0)">E/1-906</text>
<text x="427" y="423" font-family="Times" font-size="12" xml:space="preserve"  fill="rgb(0,0,0)">C/1-880</text>
<text x="408" y="380" font-family="Times" font-size="12" xml:space="preserve"  fill="rgb(0,0,0)">D/1-884</text>
<text x="318" y="415" font-family="Times" font-size="12" xml:space="preserve"  fill="rgb(0,0,0)">0.016</text>
<text x="316" y="372" font-family="Times" font-size="12" xml:space="preserve"  fill="rgb(0,0,0)">0.014</text>
<text x="455" y="337" font-family="Times" font-size="12" xml:space="preserve"  fill="rgb(0,0,0)">A/1-912</text>
<text x="458" y="294" font-family="Times" font-size="12" xml:space="preserve"  fill="rgb(0,0,0)">B/1-912</text>
<text x="369" y="329" font-family="Times" font-size="12" xml:space="preserve"  fill="rgb(0,0,0)">0.013</text>
<text x="369" y="286" font-family="Times" font-size="12" xml:space="preserve"  fill="rgb(0,0,0)">0.013</text>
<text x="148" y="394" font-family="Times" font-size="12" xml:space="preserve"  fill="rgb(0,0,0)">0.024</text>
<text x="154" y="308" font-family="Times" font-size="12" xml:space="preserve"  fill="rgb(0,0,0)">0.031</text>
<text x="48" y="459" font-family="Times" font-size="12" xml:space="preserve"  fill="rgb(0,0,0)">0.045</text>
<text x="27" y="351" font-family="Times" font-size="12" xml:space="preserve"  fill="rgb(0,0,0)">0.016</text>
<text x="79" y="251" font-family="Times" font-size="12" xml:space="preserve"  fill="rgb(0,0,0)">R/1-900</text>
<text x="423" y="207" font-family="Times" font-size="12" xml:space="preserve"  fill="rgb(0,0,0)">J/1-942</text>
<text x="451" y="164" font-family="Times" font-size="12" xml:space="preserve"  fill="rgb(0,0,0)">H/1-898</text>
<text x="445" y="121" font-family="Times" font-size="12" xml:space="preserve"  fill="rgb(0,0,0)">I/1-882</text>
<text x="340" y="157" font-family="Times" font-size="12" xml:space="preserve"  fill="rgb(0,0,0)">0.016</text>
<text x="340" y="114" font-family="Times" font-size="12" xml:space="preserve"  fill="rgb(0,0,0)">0.016</text>
<text x="371" y="78" font-family="Times" font-size="12" xml:space="preserve"  fill="rgb(0,0,0)">F/1-923</text>
<text x="362" y="35" font-family="Times" font-size="12" xml:space="preserve"  fill="rgb(0,0,0)">G/1-912</text>
<text x="310" y="71" font-family="Times" font-size="12" xml:space="preserve"  fill="rgb(0,0,0)">0.009</text>
<text x="192" y="135" font-family="Times" font-size="12" xml:space="preserve"  fill="rgb(0,0,0)">0.021</text>
<text x="190" y="49" font-family="Times" font-size="12" xml:space="preserve"  fill="rgb(0,0,0)">0.017</text>
<text x="157" y="200" font-family="Times" font-size="12" xml:space="preserve"  fill="rgb(0,0,0)">0.040</text>
<text x="18" y="195" font-family="Times" font-size="12" xml:space="preserve"  fill="rgb(0,0,0)">0.009</text>
<line x1="306" y1="418" x2="425" y2="418" style="stroke:rgb(0,0,0);stroke-width:1;stroke-linecap:butt" />
<line x1="306" y1="375" x2="405" y2="375" style="stroke:rgb(0,0,0);stroke-width:1;stroke-linecap:butt" />
<line x1="306" y1="418" x2="306" y2="375" style="stroke:rgb(0,0,0);stroke-width:1;stroke-linecap:butt" />
<line x1="359" y1="332" x2="452" y2="332" style="stroke:rgb(0,0,0);stroke-width:1;stroke-linecap:butt" />
<line x1="359" y1="289" x2="455" y2="289" style="stroke:rgb(0,0,0);stroke-width:1;stroke-linecap:butt" />
<line x1="359" y1="332" x2="359" y2="289" style="stroke:rgb(0,0,0);stroke-width:1;stroke-linecap:butt" />
<line x1="131" y1="396" x2="306" y2="396" style="stroke:rgb(0,0,0);stroke-width:1;stroke-linecap:butt" />
<line x1="131" y1="310" x2="359" y2="310" style="stroke:rgb(0,0,0);stroke-width:1;stroke-linecap:butt" />
<line x1="131" y1="396" x2="131" y2="310" style="stroke:rgb(0,0,0);stroke-width:1;stroke-linecap:butt" />
<line x1="15" y1="461" x2="344" y2="461" style="stroke:rgb(0,0,0);stroke-width:1;stroke-linecap:butt" />
<line x1="15" y1="353" x2="131" y2="353" style="stroke:rgb(0,0,0);stroke-width:1;stroke-linecap:butt" />
<line x1="15" y1="461" x2="15" y2="353" style="stroke:rgb(0,0,0);stroke-width:1;stroke-linecap:butt" />
<line x1="328" y1="159" x2="449" y2="159" style="stroke:rgb(0,0,0);stroke-width:1;stroke-linecap:butt" />
<line x1="328" y1="116" x2="442" y2="116" style="stroke:rgb(0,0,0);stroke-width:1;stroke-linecap:butt" />
<line x1="328" y1="159" x2="328" y2="116" style="stroke:rgb(0,0,0);stroke-width:1;stroke-linecap:butt" />
<line x1="303" y1="73" x2="369" y2="73" style="stroke:rgb(0,0,0);stroke-width:1;stroke-linecap:butt" />
<line x1="303" y1="30" x2="360" y2="30" style="stroke:rgb(0,0,0);stroke-width:1;stroke-linecap:butt" />
<line x1="303" y1="73" x2="303" y2="30" style="stroke:rgb(0,0,0);stroke-width:1;stroke-linecap:butt" />
<line x1="177" y1="138" x2="328" y2="138" style="stroke:rgb(0,0,0);stroke-width:1;stroke-linecap:butt" />
<line x1="177" y1="52" x2="303" y2="52" style="stroke:rgb(0,0,0);stroke-width:1;stroke-linecap:butt" />
<line x1="177" y1="138" x2="177" y2="52" style="stroke:rgb(0,0,0);stroke-width:1;stroke-linecap:butt" />
<line x1="127" y1="202" x2="421" y2="202" style="stroke:rgb(0,0,0);stroke-width:1;stroke-linecap:butt" />
<line x1="127" y1="95" x2="177" y2="95" style="stroke:rgb(0,0,0);stroke-width:1;stroke-linecap:butt" />
<line x1="127" y1="202" x2="127" y2="95" style="stroke:rgb(0,0,0);stroke-width:1;stroke-linecap:butt" />
<line x1="77" y1="246" x2="77" y2="246" style="stroke:rgb(0,0,0);stroke-width:1;stroke-linecap:butt" />
<line x1="77" y1="149" x2="127" y2="149" style="stroke:rgb(0,0,0);stroke-width:1;stroke-linecap:butt" />
<line x1="77" y1="246" x2="77" y2="149" style="stroke:rgb(0,0,0);stroke-width:1;stroke-linecap:butt" />
<line x1="12" y1="407" x2="15" y2="407" style="stroke:rgb(0,0,0);stroke-width:1;stroke-linecap:butt" />
<line x1="12" y1="197" x2="77" y2="197" style="stroke:rgb(0,0,0);stroke-width:1;stroke-linecap:butt" />
<line x1="12" y1="407" x2="12" y2="197" style="stroke:rgb(0,0,0);stroke-width:1;stroke-linecap:butt" />
<text x="5" y="17" font-family="Times" font-size="12" xml:space="preserve"  fill="rgb(0,0,0)">PhyML ln(L)=-3106.2 1054 sites GTR 4 rate classes</text>
<line x1="417" y1="13" x2="490" y2="13" style="stroke:rgb(0,0,0);stroke-width:1;stroke-linecap:butt" />
<line x1="417" y1="17" x2="417" y2="9" style="stroke:rgb(0,0,0);stroke-width:1;stroke-linecap:butt" />
<line x1="490" y1="17" x2="490" y2="9" style="stroke:rgb(0,0,0);stroke-width:1;stroke-linecap:butt" />
<text x="440" y="11" font-family="Times" font-size="12" xml:space="preserve"  fill="rgb(0,0,0)">0.01</text>
</svg>
