<?xml version="1.0" encoding="utf-8" standalone="no"?>
<!DOCTYPE svg PUBLIC "-//W3C//DTD SVG 1.1//EN" 
"http://www.w3.org/Graphics/SVG/1.1/DTD/svg11.dtd">
<svg width="516px" height="470px" viewBox="0 0 516 470"
xmlns="http://www.w3.org/2000/svg" version="1.1">
<rect x="0" y="0" width="516" height="470" fill="none" stroke="rgb(192,192,192)" stroke-width="1"/>
<text x="79" y="466" font-family="Times" font-size="12" xml:space="preserve"  fill="rgb(0,0,0)">R/1-900</text>
<text x="401" y="423" font-family="Times" font-size="12" xml:space="preserve"  fill="rgb(0,0,0)">J/1-942</text>
<text x="420" y="380" font-family="Times" font-size="12" xml:space="preserve"  fill="rgb(0,0,0)">I/1-882</text>
<text x="457" y="337" font-family="Times" font-size="12" xml:space="preserve"  fill="rgb(0,0,0)">H/1-898</text>
<text x="334" y="372" font-family="Times" font-size="12" xml:space="preserve"  fill="rgb(0,0,0)">0.013</text>
<text x="338" y="329" font-family="Times" font-size="12" xml:space="preserve"  fill="rgb(0,0,0)">0.018</text>
<text x="374" y="294" font-family="Times" font-size="12" xml:space="preserve"  fill="rgb(0,0,0)">G/1-912</text>
<text x="392" y="251" font-family="Times" font-size="12" xml:space="preserve"  fill="rgb(0,0,0)">F/1-923</text>
<text x="332" y="243" font-family="Times" font-size="12" xml:space="preserve"  fill="rgb(0,0,0)">0.009</text>
<text x="197" y="351" font-family="Times" font-size="12" xml:space="preserve"  fill="rgb(0,0,0)">0.019</text>
<text x="197" y="265" font-family="Times" font-size="12" xml:space="preserve"  fill="rgb(0,0,0)">0.019</text>
<text x="163" y="415" font-family="Times" font-size="12" xml:space="preserve"  fill="rgb(0,0,0)">0.036</text>
<text x="82" y="362" font-family="Times" font-size="12" xml:space="preserve"  fill="rgb(0,0,0)">0.008</text>
<text x="309" y="207" font-family="Times" font-size="12" xml:space="preserve"  fill="rgb(0,0,0)">E/1-906</text>
<text x="392" y="164" font-family="Times" font-size="12" xml:space="preserve"  fill="rgb(0,0,0)">D/1-884</text>
<text x="429" y="121" font-family="Times" font-size="12" xml:space="preserve"  fill="rgb(0,0,0)">C/1-880</text>
<text x="315" y="157" font-family="Times" font-size="12" xml:space="preserve"  fill="rgb(0,0,0)">0.011</text>
<text x="319" y="114" font-family="Times" font-size="12" xml:space="preserve"  fill="rgb(0,0,0)">0.016</text>
<text x="457" y="78" font-family="Times" font-size="12" xml:space="preserve"  fill="rgb(0,0,0)">B/1-912</text>
<text x="457" y="35" font-family="Times" font-size="12" xml:space="preserve"  fill="rgb(0,0,0)">A/1-912</text>
<text x="367" y="71" font-family="Times" font-size="12" xml:space="preserve"  fill="rgb(0,0,0)">0.013</text>
<text x="367" y="28" font-family="Times" font-size="12" xml:space="preserve"  fill="rgb(0,0,0)">0.013</text>
<text x="162" y="135" font-family="Times" font-size="12" xml:space="preserve"  fill="rgb(0,0,0)">0.022</text>
<text x="167" y="49" font-family="Times" font-size="12" xml:space="preserve"  fill="rgb(0,0,0)">0.029</text>
<text x="50" y="200" font-family="Times" font-size="12" xml:space="preserve"  fill="rgb(0,0,0)">0.039</text>
<text x="34" y="92" font-family="Times" font-size="12" xml:space="preserve"  fill="rgb(0,0,0)">0.017</text>
<text x="18" y="410" font-family="Times" font-size="12" xml:space="preserve"  fill="rgb(0,0,0)">0.009</text>
<line x1="325" y1="375" x2="417" y2="375" style="stroke:rgb(0,0,0);stroke-width:1;stroke-linecap:butt" />
<line x1="325" y1="332" x2="454" y2="332" style="stroke:rgb(0,0,0);stroke-width:1;stroke-linecap:butt" />
<line x1="325" y1="375" x2="325" y2="332" style="stroke:rgb(0,0,0);stroke-width:1;stroke-linecap:butt" />
<line x1="325" y1="289" x2="371" y2="289" style="stroke:rgb(0,0,0);stroke-width:1;stroke-linecap:butt" />
<line x1="325" y1="246" x2="390" y2="246" style="stroke:rgb(0,0,0);stroke-width:1;stroke-linecap:butt" />
<line x1="325" y1="289" x2="325" y2="246" style="stroke:rgb(0,0,0);stroke-width:1;stroke-linecap:butt" />
<line x1="182" y1="353" x2="325" y2="353" style="stroke:rgb(0,0,0);stroke-width:1;stroke-linecap:butt" />
<line x1="182" y1="267" x2="325" y2="267" style="stroke:rgb(0,0,0);stroke-width:1;stroke-linecap:butt" />
<line x1="182" y1="353" x2="182" y2="267" style="stroke:rgb(0,0,0);stroke-width:1;stroke-linecap:butt" />
<line x1="136" y1="418" x2="399" y2="418" style="stroke:rgb(0,0,0);stroke-width:1;stroke-linecap:butt" />
<line x1="136" y1="310" x2="182" y2="310" style="stroke:rgb(0,0,0);stroke-width:1;stroke-linecap:butt" />
<line x1="136" y1="418" x2="136" y2="310" style="stroke:rgb(0,0,0);stroke-width:1;stroke-linecap:butt" />
<line x1="76" y1="461" x2="76" y2="461" style="stroke:rgb(0,0,0);stroke-width:1;stroke-linecap:butt" />
<line x1="76" y1="364" x2="136" y2="364" style="stroke:rgb(0,0,0);stroke-width:1;stroke-linecap:butt" />
<line x1="76" y1="461" x2="76" y2="364" style="stroke:rgb(0,0,0);stroke-width:1;stroke-linecap:butt" />
<line x1="307" y1="159" x2="390" y2="159" style="stroke:rgb(0,0,0);stroke-width:1;stroke-linecap:butt" />
<line x1="307" y1="116" x2="426" y2="116" style="stroke:rgb(0,0,0);stroke-width:1;stroke-linecap:butt" />
<line x1="307" y1="159" x2="307" y2="116" style="stroke:rgb(0,0,0);stroke-width:1;stroke-linecap:butt" />
<line x1="357" y1="73" x2="454" y2="73" style="stroke:rgb(0,0,0);stroke-width:1;stroke-linecap:butt" />
<line x1="357" y1="30" x2="454" y2="30" style="stroke:rgb(0,0,0);stroke-width:1;stroke-linecap:butt" />
<line x1="357" y1="73" x2="357" y2="30" style="stroke:rgb(0,0,0);stroke-width:1;stroke-linecap:butt" />
<line x1="146" y1="138" x2="307" y2="138" style="stroke:rgb(0,0,0);stroke-width:1;stroke-linecap:butt" />
<line x1="146" y1="52" x2="357" y2="52" style="stroke:rgb(0,0,0);stroke-width:1;stroke-linecap:butt" />
<line x1="146" y1="138" x2="146" y2="52" style="stroke:rgb(0,0,0);stroke-width:1;stroke-linecap:butt" />
<line x1="21" y1="202" x2="307" y2="202" style="stroke:rgb(0,0,0);stroke-width:1;stroke-linecap:butt" />
<line x1="21" y1="95" x2="146" y2="95" style="stroke:rgb(0,0,0);stroke-width:1;stroke-linecap:butt" />
<line x1="21" y1="202" x2="21" y2="95" style="stroke:rgb(0,0,0);stroke-width:1;stroke-linecap:butt" />
<line x1="12" y1="413" x2="76" y2="413" style="stroke:rgb(0,0,0);stroke-width:1;stroke-linecap:butt" />
<line x1="12" y1="149" x2="21" y2="149" style="stroke:rgb(0,0,0);stroke-width:1;stroke-linecap:butt" />
<line x1="12" y1="413" x2="12" y2="149" style="stroke:rgb(0,0,0);stroke-width:1;stroke-linecap:butt" />
<text x="5" y="17" font-family="Times" font-size="12" xml:space="preserve"  fill="rgb(0,0,0)">Dnapars, 1 best trees, 243 steps, 798 sites (99 informative)</text>
<line x1="417" y1="13" x2="490" y2="13" style="stroke:rgb(0,0,0);stroke-width:1;stroke-linecap:butt" />
<line x1="417" y1="17" x2="417" y2="9" style="stroke:rgb(0,0,0);stroke-width:1;stroke-linecap:butt" />
<line x1="490" y1="17" x2="490" y2="9" style="stroke:rgb(0,0,0);stroke-width:1;stroke-linecap:butt" />
<text x="440" y="11" font-family="Times" font-size="12" xml:space="preserve"  fill="rgb(0,0,0)">0.01</text>
</svg>
