<?xml version="1.0" encoding="utf-8" standalone="no"?>
<!DOCTYPE svg PUBLIC "-//W3C//DTD SVG 1.1//EN" 
"http://www.w3.org/Graphics/SVG/1.1/DTD/svg11.dtd">
<svg width="516px" height="470px" viewBox="0 0 516 470"
xmlns="http://www.w3.org/2000/svg" version="1.1">
<rect x="0" y="0" width="516" height="470" fill="none" stroke="rgb(192,192,192)" stroke-width="1"/>
<text x="400" y="466" font-family="Times" font-size="12" xml:space="preserve"  fill="rgb(0,0,0)">E</text>
<text x="467" y="423" font-family="Times" font-size="12" xml:space="preserve"  fill="rgb(0,0,0)">A</text>
<text x="475" y="380" font-family="Times" font-size="12" xml:space="preserve"  fill="rgb(0,0,0)">B</text>
<text x="390" y="415" font-family="Times" font-size="12" xml:space="preserve"  fill="rgb(0,0,0)">0.012</text>
<text x="390" y="372" font-family="Times" font-size="12" xml:space="preserve"  fill="rgb(0,0,0)">0.013</text>
<text x="498" y="337" font-family="Times" font-size="12" xml:space="preserve"  fill="rgb(0,0,0)">C</text>
<text x="480" y="294" font-family="Times" font-size="12" xml:space="preserve"  fill="rgb(0,0,0)">D</text>
<text x="396" y="329" font-family="Times" font-size="12" xml:space="preserve"  fill="rgb(0,0,0)">0.016</text>
<text x="394" y="286" font-family="Times" font-size="12" xml:space="preserve"  fill="rgb(0,0,0)">0.014</text>
<text x="178" y="394" font-family="Times" font-size="12" xml:space="preserve"  fill="rgb(0,0,0)">0.033</text>
<text x="178" y="308" font-family="Times" font-size="12" xml:space="preserve"  fill="rgb(0,0,0)">0.034</text>
<text x="54" y="459" font-family="Times" font-size="12" xml:space="preserve"  fill="rgb(0,0,0)">0.056</text>
<text x="30" y="351" font-family="Times" font-size="12" xml:space="preserve"  fill="rgb(0,0,0)">0.021</text>
<text x="85" y="251" font-family="Times" font-size="12" xml:space="preserve"  fill="rgb(0,0,0)">R</text>
<text x="431" y="207" font-family="Times" font-size="12" xml:space="preserve"  fill="rgb(0,0,0)">J</text>
<text x="429" y="164" font-family="Times" font-size="12" xml:space="preserve"  fill="rgb(0,0,0)">F</text>
<text x="414" y="121" font-family="Times" font-size="12" xml:space="preserve"  fill="rgb(0,0,0)">G</text>
<text x="366" y="157" font-family="Times" font-size="12" xml:space="preserve"  fill="rgb(0,0,0)">0.010</text>
<text x="494" y="78" font-family="Times" font-size="12" xml:space="preserve"  fill="rgb(0,0,0)">H</text>
<text x="471" y="35" font-family="Times" font-size="12" xml:space="preserve"  fill="rgb(0,0,0)">I</text>
<text x="369" y="71" font-family="Times" font-size="12" xml:space="preserve"  fill="rgb(0,0,0)">0.020</text>
<text x="367" y="28" font-family="Times" font-size="12" xml:space="preserve"  fill="rgb(0,0,0)">0.017</text>
<text x="216" y="135" font-family="Times" font-size="12" xml:space="preserve"  fill="rgb(0,0,0)">0.024</text>
<text x="215" y="49" font-family="Times" font-size="12" xml:space="preserve"  fill="rgb(0,0,0)">0.023</text>
<text x="181" y="200" font-family="Times" font-size="12" xml:space="preserve"  fill="rgb(0,0,0)">0.041</text>
<text x="90" y="146" font-family="Times" font-size="12" xml:space="preserve"  fill="rgb(0,0,0)">0.010</text>
<text x="19" y="195" font-family="Times" font-size="12" xml:space="preserve"  fill="rgb(0,0,0)">0.010</text>
<line x1="381" y1="418" x2="465" y2="418" style="stroke:rgb(0,0,0);stroke-width:1;stroke-linecap:butt" />
<line x1="381" y1="375" x2="472" y2="375" style="stroke:rgb(0,0,0);stroke-width:1;stroke-linecap:butt" />
<line x1="381" y1="418" x2="381" y2="375" style="stroke:rgb(0,0,0);stroke-width:1;stroke-linecap:butt" />
<line x1="385" y1="332" x2="495" y2="332" style="stroke:rgb(0,0,0);stroke-width:1;stroke-linecap:butt" />
<line x1="385" y1="289" x2="477" y2="289" style="stroke:rgb(0,0,0);stroke-width:1;stroke-linecap:butt" />
<line x1="385" y1="332" x2="385" y2="289" style="stroke:rgb(0,0,0);stroke-width:1;stroke-linecap:butt" />
<line x1="155" y1="396" x2="381" y2="396" style="stroke:rgb(0,0,0);stroke-width:1;stroke-linecap:butt" />
<line x1="155" y1="310" x2="385" y2="310" style="stroke:rgb(0,0,0);stroke-width:1;stroke-linecap:butt" />
<line x1="155" y1="396" x2="155" y2="310" style="stroke:rgb(0,0,0);stroke-width:1;stroke-linecap:butt" />
<line x1="16" y1="461" x2="398" y2="461" style="stroke:rgb(0,0,0);stroke-width:1;stroke-linecap:butt" />
<line x1="16" y1="353" x2="155" y2="353" style="stroke:rgb(0,0,0);stroke-width:1;stroke-linecap:butt" />
<line x1="16" y1="461" x2="16" y2="353" style="stroke:rgb(0,0,0);stroke-width:1;stroke-linecap:butt" />
<line x1="359" y1="159" x2="427" y2="159" style="stroke:rgb(0,0,0);stroke-width:1;stroke-linecap:butt" />
<line x1="359" y1="116" x2="412" y2="116" style="stroke:rgb(0,0,0);stroke-width:1;stroke-linecap:butt" />
<line x1="359" y1="159" x2="359" y2="116" style="stroke:rgb(0,0,0);stroke-width:1;stroke-linecap:butt" />
<line x1="356" y1="73" x2="491" y2="73" style="stroke:rgb(0,0,0);stroke-width:1;stroke-linecap:butt" />
<line x1="356" y1="30" x2="469" y2="30" style="stroke:rgb(0,0,0);stroke-width:1;stroke-linecap:butt" />
<line x1="356" y1="73" x2="356" y2="30" style="stroke:rgb(0,0,0);stroke-width:1;stroke-linecap:butt" />
<line x1="200" y1="138" x2="359" y2="138" style="stroke:rgb(0,0,0);stroke-width:1;stroke-linecap:butt" />
<line x1="200" y1="52" x2="356" y2="52" style="stroke:rgb(0,0,0);stroke-width:1;stroke-linecap:butt" />
<line x1="200" y1="138" x2="200" y2="52" style="stroke:rgb(0,0,0);stroke-width:1;stroke-linecap:butt" />
<line x1="153" y1="202" x2="429" y2="202" style="stroke:rgb(0,0,0);stroke-width:1;stroke-linecap:butt" />
<line x1="153" y1="95" x2="200" y2="95" style="stroke:rgb(0,0,0);stroke-width:1;stroke-linecap:butt" />
<line x1="153" y1="202" x2="153" y2="95" style="stroke:rgb(0,0,0);stroke-width:1;stroke-linecap:butt" />
<line x1="83" y1="246" x2="83" y2="246" style="stroke:rgb(0,0,0);stroke-width:1;stroke-linecap:butt" />
<line x1="83" y1="149" x2="153" y2="149" style="stroke:rgb(0,0,0);stroke-width:1;stroke-linecap:butt" />
<line x1="83" y1="246" x2="83" y2="149" style="stroke:rgb(0,0,0);stroke-width:1;stroke-linecap:butt" />
<line x1="12" y1="407" x2="16" y2="407" style="stroke:rgb(0,0,0);stroke-width:1;stroke-linecap:butt" />
<line x1="12" y1="197" x2="83" y2="197" style="stroke:rgb(0,0,0);stroke-width:1;stroke-linecap:butt" />
<line x1="12" y1="407" x2="12" y2="197" style="stroke:rgb(0,0,0);stroke-width:1;stroke-linecap:butt" />
<text x="5" y="17" font-family="Times" font-size="12" xml:space="preserve"  fill="rgb(0,0,0)">PhyML ln(L)=-3255.1 1027 sites GTR 4 rate classes</text>
<line x1="422" y1="13" x2="490" y2="13" style="stroke:rgb(0,0,0);stroke-width:1;stroke-linecap:butt" />
<line x1="422" y1="17" x2="422" y2="9" style="stroke:rgb(0,0,0);stroke-width:1;stroke-linecap:butt" />
<line x1="490" y1="17" x2="490" y2="9" style="stroke:rgb(0,0,0);stroke-width:1;stroke-linecap:butt" />
<text x="442" y="11" font-family="Times" font-size="12" xml:space="preserve"  fill="rgb(0,0,0)">0.01</text>
</svg>
