<?xml version="1.0" encoding="utf-8" standalone="no"?>
<!DOCTYPE svg PUBLIC "-//W3C//DTD SVG 1.1//EN" 
"http://www.w3.org/Graphics/SVG/1.1/DTD/svg11.dtd">
<svg width="516px" height="470px" viewBox="0 0 516 470"
xmlns="http://www.w3.org/2000/svg" version="1.1">
<rect x="0" y="0" width="516" height="470" fill="none" stroke="rgb(192,192,192)" stroke-width="1"/>
<text x="98" y="466" font-family="Times" font-size="12" xml:space="preserve"  fill="rgb(0,0,0)">R</text>
<text x="440" y="423" font-family="Times" font-size="12" xml:space="preserve"  fill="rgb(0,0,0)">J</text>
<text x="468" y="380" font-family="Times" font-size="12" xml:space="preserve"  fill="rgb(0,0,0)">I</text>
<text x="497" y="337" font-family="Times" font-size="12" xml:space="preserve"  fill="rgb(0,0,0)">H</text>
<text x="372" y="372" font-family="Times" font-size="12" xml:space="preserve"  fill="rgb(0,0,0)">0.014</text>
<text x="374" y="329" font-family="Times" font-size="12" xml:space="preserve"  fill="rgb(0,0,0)">0.018</text>
<text x="449" y="294" font-family="Times" font-size="12" xml:space="preserve"  fill="rgb(0,0,0)">G</text>
<text x="449" y="251" font-family="Times" font-size="12" xml:space="preserve"  fill="rgb(0,0,0)">F</text>
<text x="241" y="351" font-family="Times" font-size="12" xml:space="preserve"  fill="rgb(0,0,0)">0.018</text>
<text x="244" y="265" font-family="Times" font-size="12" xml:space="preserve"  fill="rgb(0,0,0)">0.021</text>
<text x="206" y="415" font-family="Times" font-size="12" xml:space="preserve"  fill="rgb(0,0,0)">0.034</text>
<text x="104" y="362" font-family="Times" font-size="12" xml:space="preserve"  fill="rgb(0,0,0)">0.011</text>
<text x="373" y="207" font-family="Times" font-size="12" xml:space="preserve"  fill="rgb(0,0,0)">E</text>
<text x="27" y="410" font-family="Times" font-size="12" xml:space="preserve"  fill="rgb(0,0,0)">0.010</text>
<text x="54" y="200" font-family="Times" font-size="12" xml:space="preserve"  fill="rgb(0,0,0)">0.047</text>
<text x="434" y="164" font-family="Times" font-size="12" xml:space="preserve"  fill="rgb(0,0,0)">D</text>
<text x="463" y="121" font-family="Times" font-size="12" xml:space="preserve"  fill="rgb(0,0,0)">C</text>
<text x="346" y="157" font-family="Times" font-size="12" xml:space="preserve"  fill="rgb(0,0,0)">0.013</text>
<text x="349" y="114" font-family="Times" font-size="12" xml:space="preserve"  fill="rgb(0,0,0)">0.016</text>
<text x="482" y="78" font-family="Times" font-size="12" xml:space="preserve"  fill="rgb(0,0,0)">B</text>
<text x="472" y="35" font-family="Times" font-size="12" xml:space="preserve"  fill="rgb(0,0,0)">A</text>
<text x="390" y="71" font-family="Times" font-size="12" xml:space="preserve"  fill="rgb(0,0,0)">0.013</text>
<text x="389" y="28" font-family="Times" font-size="12" xml:space="preserve"  fill="rgb(0,0,0)">0.012</text>
<text x="170" y="135" font-family="Times" font-size="12" xml:space="preserve"  fill="rgb(0,0,0)">0.025</text>
<text x="175" y="49" font-family="Times" font-size="12" xml:space="preserve"  fill="rgb(0,0,0)">0.030</text>
<text x="26" y="92" font-family="Times" font-size="12" xml:space="preserve"  fill="rgb(0,0,0)">0.019</text>
<line x1="361" y1="375" x2="466" y2="375" style="stroke:rgb(0,0,0);stroke-width:1;stroke-linecap:butt" />
<line x1="361" y1="332" x2="494" y2="332" style="stroke:rgb(0,0,0);stroke-width:1;stroke-linecap:butt" />
<line x1="361" y1="375" x2="361" y2="332" style="stroke:rgb(0,0,0);stroke-width:1;stroke-linecap:butt" />
<line x1="390" y1="289" x2="447" y2="289" style="stroke:rgb(0,0,0);stroke-width:1;stroke-linecap:butt" />
<line x1="390" y1="246" x2="447" y2="246" style="stroke:rgb(0,0,0);stroke-width:1;stroke-linecap:butt" />
<line x1="390" y1="289" x2="390" y2="246" style="stroke:rgb(0,0,0);stroke-width:1;stroke-linecap:butt" />
<line x1="228" y1="353" x2="361" y2="353" style="stroke:rgb(0,0,0);stroke-width:1;stroke-linecap:butt" />
<line x1="228" y1="267" x2="390" y2="267" style="stroke:rgb(0,0,0);stroke-width:1;stroke-linecap:butt" />
<line x1="228" y1="353" x2="228" y2="267" style="stroke:rgb(0,0,0);stroke-width:1;stroke-linecap:butt" />
<line x1="181" y1="418" x2="437" y2="418" style="stroke:rgb(0,0,0);stroke-width:1;stroke-linecap:butt" />
<line x1="181" y1="310" x2="228" y2="310" style="stroke:rgb(0,0,0);stroke-width:1;stroke-linecap:butt" />
<line x1="181" y1="418" x2="181" y2="310" style="stroke:rgb(0,0,0);stroke-width:1;stroke-linecap:butt" />
<line x1="95" y1="461" x2="95" y2="461" style="stroke:rgb(0,0,0);stroke-width:1;stroke-linecap:butt" />
<line x1="95" y1="364" x2="181" y2="364" style="stroke:rgb(0,0,0);stroke-width:1;stroke-linecap:butt" />
<line x1="95" y1="461" x2="95" y2="364" style="stroke:rgb(0,0,0);stroke-width:1;stroke-linecap:butt" />
<line x1="19" y1="413" x2="95" y2="413" style="stroke:rgb(0,0,0);stroke-width:1;stroke-linecap:butt" />
<line x1="19" y1="202" x2="371" y2="202" style="stroke:rgb(0,0,0);stroke-width:1;stroke-linecap:butt" />
<line x1="19" y1="413" x2="19" y2="202" style="stroke:rgb(0,0,0);stroke-width:1;stroke-linecap:butt" />
<line x1="337" y1="159" x2="432" y2="159" style="stroke:rgb(0,0,0);stroke-width:1;stroke-linecap:butt" />
<line x1="337" y1="116" x2="460" y2="116" style="stroke:rgb(0,0,0);stroke-width:1;stroke-linecap:butt" />
<line x1="337" y1="159" x2="337" y2="116" style="stroke:rgb(0,0,0);stroke-width:1;stroke-linecap:butt" />
<line x1="380" y1="73" x2="479" y2="73" style="stroke:rgb(0,0,0);stroke-width:1;stroke-linecap:butt" />
<line x1="380" y1="30" x2="470" y2="30" style="stroke:rgb(0,0,0);stroke-width:1;stroke-linecap:butt" />
<line x1="380" y1="73" x2="380" y2="30" style="stroke:rgb(0,0,0);stroke-width:1;stroke-linecap:butt" />
<line x1="152" y1="138" x2="337" y2="138" style="stroke:rgb(0,0,0);stroke-width:1;stroke-linecap:butt" />
<line x1="152" y1="52" x2="380" y2="52" style="stroke:rgb(0,0,0);stroke-width:1;stroke-linecap:butt" />
<line x1="152" y1="138" x2="152" y2="52" style="stroke:rgb(0,0,0);stroke-width:1;stroke-linecap:butt" />
<line x1="12" y1="307" x2="19" y2="307" style="stroke:rgb(0,0,0);stroke-width:1;stroke-linecap:butt" />
<line x1="12" y1="95" x2="152" y2="95" style="stroke:rgb(0,0,0);stroke-width:1;stroke-linecap:butt" />
<line x1="12" y1="307" x2="12" y2="95" style="stroke:rgb(0,0,0);stroke-width:1;stroke-linecap:butt" />
<text x="5" y="17" font-family="Times" font-size="12" xml:space="preserve"  fill="rgb(0,0,0)">Dnapars, 1 best trees, 256 steps, 795 sites (108 informative)</text>
<line x1="415" y1="13" x2="490" y2="13" style="stroke:rgb(0,0,0);stroke-width:1;stroke-linecap:butt" />
<line x1="415" y1="17" x2="415" y2="9" style="stroke:rgb(0,0,0);stroke-width:1;stroke-linecap:butt" />
<line x1="490" y1="17" x2="490" y2="9" style="stroke:rgb(0,0,0);stroke-width:1;stroke-linecap:butt" />
<text x="439" y="11" font-family="Times" font-size="12" xml:space="preserve"  fill="rgb(0,0,0)">0.01</text>
</svg>
